<svg width="120" height="32" viewBox="0 0 120 32" fill="none" xmlns="http://www.w3.org/2000/svg">
<g clip-path="url(#clip0_351_1235)">
<path d="M0.52328 16.2982H8.43689C11.8264 16.3234 14.6167 18.3162 15.0439 21.7124H15.8932C16.3228 18.2997 19.1383 16.2964 22.5497 16.2964H29.9967V23.2522H24.771V24.0095H30.3617C30.4588 24.0095 30.5518 23.9696 30.6204 23.8985C30.6891 23.8274 30.7276 23.731 30.7276 23.6304V15.9148C30.7276 15.8142 30.6891 15.7178 30.6204 15.6467C30.5518 15.5756 30.4588 15.5357 30.3617 15.5357H22.5488C19.1375 15.5357 16.322 13.5359 15.8923 10.1189H15.0431C14.6134 13.5324 11.7979 15.5357 8.38654 15.5357H0.893374C0.922746 13.2803 0.969728 9.7276 0.985673 8.57989H6.16854V7.82173H0.684394C0.666623 7.81888 0.648673 7.81743 0.63069 7.81738C0.529147 7.81738 0.300048 7.85478 0.265641 8.20083C0.265641 8.20865 0.265641 8.21648 0.265641 8.22343C0.265641 8.23039 0.265641 8.25819 0.265641 8.27645L0.249686 9.3972C0.239616 10.1206 0.227034 11.0857 0.214446 12.0508L0.164097 15.9104C0.163435 15.9606 0.172369 16.0104 0.190373 16.0569C0.208377 16.1035 0.235095 16.1459 0.268996 16.1817C0.336467 16.2525 0.427344 16.2941 0.52328 16.2982Z" fill="white"/>
<path d="M9.71899 24.1783H21.216V23.0933H9.71899V24.1783Z" fill="white"/>
<path d="M4.22131 31.9999H4.26495C5.31901 32.009 6.33934 31.6153 7.13081 30.894C7.57794 30.4854 7.93553 29.9824 8.17957 29.4189C8.42361 28.8553 8.54845 28.2442 8.5457 27.6265V17.6763H7.49836V27.6265C7.50075 28.1018 7.40258 28.5718 7.21076 29.0035C7.01894 29.4352 6.73814 29.8182 6.38811 30.1253C5.79674 30.6422 5.04614 30.9223 4.2725 30.9148H4.22049C3.76177 30.9173 3.30808 30.8156 2.89139 30.6168C2.4747 30.4181 2.10511 30.1272 1.80862 29.7645C1.30975 29.1518 1.03942 28.3741 1.04664 27.5726V27.5187C1.03942 26.7171 1.30975 25.9394 1.80862 25.3267C2.10514 24.9641 2.47476 24.6732 2.89144 24.4745C3.30813 24.2757 3.76178 24.174 4.22049 24.1764H6.3235V23.0931H4.22049C3.62431 23.0902 3.03443 23.2195 2.49049 23.4724C1.94654 23.7252 1.4611 24.0957 1.06677 24.559C0.371053 25.3789 -0.00867012 26.4357 0.000150281 27.5274V27.5647C-0.0086454 28.6568 0.371401 29.714 1.06761 30.534C1.46191 30.9973 1.94736 31.3678 2.49131 31.6207C3.03526 31.8735 3.62512 32.0028 4.22131 31.9999Z" fill="white"/>
<path d="M9.71948 8.74234H21.2165V7.65723H9.71948V8.74234Z" fill="white"/>
<path d="M8.54602 4.45772C8.55899 3.61632 8.8693 2.80903 9.41818 2.18876C9.96706 1.56848 10.7164 1.17827 11.5243 1.092C11.9618 1.06105 12.4007 1.12349 12.8139 1.27543C13.2271 1.42737 13.6058 1.66558 13.9266 1.97532C14.2473 2.28505 14.5032 2.6597 14.6785 3.07609C14.8539 3.49247 14.9448 3.9417 14.9457 4.39597V6.44011H15.9897V4.39597C15.9897 3.22892 15.5422 2.10968 14.7457 1.28445C13.9492 0.459215 12.8689 -0.00439453 11.7425 -0.00439453C10.6161 -0.00439453 9.53583 0.459215 8.73933 1.28445C7.94283 2.10968 7.49536 3.22892 7.49536 4.39597V14.1549H8.54267L8.54602 4.45772Z" fill="white"/>
<path d="M29.5752 1.20357C28.7692 0.419813 27.7023 -0.0112771 26.597 0.000224362C25.8262 -0.004569 25.0699 0.216359 24.415 0.637548C23.8001 1.03182 23.2925 1.5821 22.94 2.23631C22.5876 2.89052 22.4021 3.62707 22.401 4.37629V14.1657H23.4483V4.37366C23.45 3.81029 23.5902 3.25667 23.8557 2.765C24.1211 2.27333 24.5031 1.85984 24.9656 1.56354C25.4614 1.24567 26.034 1.07987 26.6171 1.08534C27.4498 1.07608 28.2537 1.40033 28.8611 1.99044C29.3213 2.44334 29.6398 3.02876 29.7756 3.67112C29.9113 4.31347 29.8581 4.98325 29.6227 5.59394C29.3874 6.20463 28.9807 6.72819 28.4553 7.09699C27.9298 7.4658 27.3097 7.66292 26.675 7.66289H24.6198V8.74797H26.675C27.519 8.74794 28.3436 8.48578 29.0423 7.99533C29.7411 7.50489 30.2819 6.80869 30.5949 5.99662C30.908 5.18455 30.9789 4.29389 30.7984 3.43966C30.618 2.58543 30.1946 1.80686 29.5828 1.20445L29.5752 1.20357Z" fill="white"/>
<path d="M22.3926 27.4864C22.3836 28.3476 22.0611 29.1735 21.4895 29.7988C20.918 30.4242 20.1397 30.8028 19.3102 30.8591C18.8804 30.8755 18.4518 30.8019 18.05 30.6427C17.6482 30.4836 17.2815 30.2421 16.9719 29.9328C16.6622 29.6235 16.4159 29.2527 16.2477 28.8425C16.0795 28.4323 15.9928 27.9912 15.9929 27.5456V25.3936H14.9456V27.5456C14.944 28.1235 15.0532 28.6961 15.2667 29.2301C15.4802 29.7641 15.7937 30.2489 16.1893 30.6565L16.2103 30.6783C17.0031 31.4923 18.0748 31.9478 19.191 31.9451H19.2515C20.366 31.9244 21.4284 31.4523 22.2111 30.63C22.9939 29.8077 23.4346 28.7005 23.4391 27.5456V17.6797H22.3917L22.3926 27.4864Z" fill="white"/>
<path d="M50.2548 8.03954L46.2921 19.5331L42.3479 8.06565L39.2848 8.07605L44.8738 24.2204L47.7195 24.2108L53.2977 8.03174L50.2548 8.03954Z" fill="white"/>
<path d="M62.1727 11.9397V13.2439C61.706 12.732 61.1426 12.325 60.5176 12.0483C59.8927 11.7716 59.2195 11.631 58.5398 11.6354C55.5414 11.6449 53.1152 14.2194 53.127 17.9564C53.1379 21.6256 55.7092 24.2288 58.643 24.2166C59.3101 24.2229 59.9711 24.085 60.5837 23.8116C61.1964 23.5382 61.7473 23.1354 62.2012 22.629V23.8897L65.0906 23.8801L65.0545 11.9275L62.1727 11.9397ZM59.16 21.4717C58.7263 21.4644 58.2987 21.3652 57.9035 21.1802C57.5082 20.9953 57.1536 20.7285 56.8616 20.3963C56.5695 20.0641 56.3462 19.6735 56.2053 19.2485C56.0645 18.8235 56.009 18.3731 56.0424 17.9251C56.0365 15.9671 57.2265 14.3873 59.139 14.3803C60.0024 14.4446 60.8104 14.8446 61.4011 15.5001C61.9919 16.1556 62.3217 17.0183 62.3244 17.9151C62.3272 18.8119 62.0027 19.6767 61.416 20.3361C60.8293 20.9955 60.0238 21.4008 59.1608 21.4708L59.16 21.4717Z" fill="white"/>
<path d="M72.3324 16.6516L71.2658 16.0925C70.6348 15.7569 70.221 15.5561 70.2202 15.1057C70.2202 14.6327 70.6742 14.384 71.2608 14.3822C72.0421 14.4568 72.7628 14.8496 73.2648 15.4743L75.0405 13.6006C74.6004 12.9847 74.026 12.4853 73.3642 12.1432C72.7024 11.8011 71.9719 11.626 71.2323 11.6321C70.7667 11.5969 70.2991 11.6591 69.8572 11.8152C69.4154 11.9712 69.0085 12.2179 68.6607 12.5405C68.3128 12.863 68.0313 13.2548 67.8328 13.6926C67.6343 14.1303 67.523 14.605 67.5054 15.0883C67.5096 16.5959 68.4478 17.7645 70.2974 18.7262L71.2767 19.2409C72.0824 19.666 72.5607 20.0469 72.5624 20.5651C72.5624 21.105 72.0001 21.5345 71.2835 21.5371C70.3322 21.4226 69.4635 20.9225 68.8674 20.146L67.0917 22.1771C67.5588 22.8283 68.1706 23.3534 68.8751 23.7077C69.5797 24.062 70.3563 24.2352 71.1391 24.2125C73.6567 24.2047 75.2839 22.6005 75.278 20.4625C75.2722 18.6914 74.2475 17.6585 72.3324 16.6516Z" fill="white"/>
<path d="M80.1387 12.2572L77.2494 12.2666L77.2856 24.22L80.175 24.2106L80.1387 12.2572Z" fill="white"/>
<path d="M78.6683 6.95604C78.4316 6.9505 78.1962 6.99334 77.9756 7.08213C77.7549 7.17093 77.5533 7.30393 77.3823 7.47351C77.2113 7.64309 77.0743 7.84591 76.979 8.07042C76.8837 8.29493 76.8321 8.53671 76.8271 8.78191C76.8178 9.04358 76.8583 9.30459 76.9464 9.55002C77.0345 9.79545 77.1685 10.0205 77.3405 10.2123C77.5126 10.404 77.7195 10.5588 77.9493 10.6677C78.1791 10.7766 78.4274 10.8375 78.68 10.8469C78.9226 10.8462 79.1627 10.796 79.3865 10.6991C79.6104 10.6022 79.8137 10.4607 79.9847 10.2824C80.1556 10.1041 80.291 9.89257 80.3831 9.66003C80.4752 9.42749 80.5221 9.17845 80.5212 8.9271C80.525 8.67148 80.48 8.41762 80.3888 8.18006C80.2977 7.9425 80.1621 7.72591 79.9899 7.54277C79.8178 7.35962 79.6124 7.21355 79.3856 7.11286C79.1588 7.01217 78.915 6.95888 78.6683 6.95604Z" fill="white"/>
<path d="M87.6996 12.2517L85.9834 12.2569L85.97 7.84521L83.0806 7.85477L83.0941 12.2665L81.6171 12.2708L81.6246 14.8375L83.1016 14.8331L83.1302 24.2234L86.0195 24.2139L85.991 14.8236L87.7071 14.8175L87.6996 12.2517Z" fill="white"/>
<path d="M96.5196 11.9667L96.5389 18.3373C96.5448 20.3632 95.9179 21.4674 94.3755 21.4735C92.8549 21.4787 92.1994 20.3554 92.1936 18.2165L92.1751 11.9806L89.2858 11.9902L89.3017 17.46C89.2641 18.3024 89.3031 19.1467 89.4184 19.9815C89.8833 22.7716 91.6003 24.2289 94.3847 24.2202C95.0736 24.2701 95.7646 24.1594 96.4067 23.8962C97.0489 23.633 97.6261 23.2241 98.0956 22.6995C99.3083 21.2996 99.4333 19.6789 99.4266 17.4731L99.4098 11.958L96.5196 11.9667Z" fill="white"/>
<path d="M119.117 13.2922C118.734 12.8382 118.258 12.4784 117.724 12.2387C117.189 11.9989 116.61 11.8854 116.028 11.9062C115.262 11.8976 114.506 12.0904 113.831 12.4666C113.156 12.8427 112.584 13.39 112.168 14.0573C111.864 13.4025 111.384 12.8529 110.785 12.4752C110.186 12.0976 109.494 11.9081 108.794 11.9297C108.111 11.9332 107.438 12.0865 106.817 12.3795C106.196 12.6725 105.642 13.0985 105.192 13.6295V12.2566L102.302 12.2662L102.338 24.2188L105.228 24.2092L105.21 18.3568C105.203 15.9032 106.242 14.6842 107.676 14.6798C109.284 14.6746 109.723 16.091 109.729 18.4099L109.747 24.1953L112.636 24.1858L112.618 18.2881C112.61 15.8345 113.649 14.6607 115.105 14.6555C116.408 14.6555 117.085 15.6172 117.092 17.5752L117.112 24.171L120.001 24.1614L119.98 17.1604C119.972 15.5858 119.881 14.2808 119.117 13.2922Z" fill="white"/>
</g>
<defs>
<clipPath id="clip0_351_1235">
<rect width="120" height="32" fill="white"/>
</clipPath>
</defs>
</svg>
