<svg width="90" height="23" viewBox="0 0 90 23" fill="none" xmlns="http://www.w3.org/2000/svg">
<g clip-path="url(#clip0_351_1334)">
<path d="M0.389266 11.7144H6.27561C8.79682 11.7325 10.8723 13.1648 11.1901 15.6058H11.8218C12.1414 13.153 14.2356 11.7131 16.7731 11.7131H22.3123V16.7126H18.4253V17.2569H22.5839C22.656 17.2569 22.7253 17.2282 22.7763 17.1771C22.8273 17.126 22.856 17.0567 22.856 16.9844V11.4388C22.856 11.3665 22.8273 11.2972 22.7763 11.2461C22.7253 11.195 22.656 11.1663 22.5839 11.1663H16.7724C14.235 11.1663 12.1407 9.72897 11.8211 7.27299H11.1894C10.8698 9.72647 8.7756 11.1663 6.23816 11.1663H0.664551C0.686398 9.54523 0.721345 6.99176 0.733205 6.16684H4.58836V5.62192H0.509106C0.495887 5.61987 0.482536 5.61882 0.469159 5.61879C0.393629 5.61879 0.22322 5.64567 0.197627 5.89439C0.197627 5.90002 0.197627 5.90564 0.197627 5.91064C0.197627 5.91564 0.197627 5.93562 0.197627 5.94874L0.185759 6.75428C0.178269 7.27423 0.16891 7.9679 0.159547 8.66158L0.122096 11.4356C0.121603 11.4717 0.128249 11.5075 0.141641 11.541C0.155033 11.5744 0.174906 11.6049 0.200123 11.6306C0.250309 11.6815 0.317906 11.7114 0.389266 11.7144Z" fill="#1B2A4E"/>
<path d="M7.22925 17.3782H15.781V16.5983H7.22925V17.3782Z" fill="#1B2A4E"/>
<path d="M3.13991 23.0002H3.17238C3.95642 23.0067 4.71536 22.7237 5.30408 22.2052C5.63667 21.9116 5.90265 21.5501 6.08417 21.145C6.2657 20.74 6.35855 20.3007 6.35651 19.8568V12.705H5.57748V19.8568C5.57925 20.1984 5.50623 20.5362 5.36355 20.8465C5.22087 21.1568 5.012 21.432 4.75164 21.6528C4.31177 22.0243 3.75345 22.2256 3.17799 22.2202H3.13931C2.7981 22.222 2.46064 22.1489 2.15069 22.0061C1.84074 21.8632 1.56583 21.6541 1.3453 21.3935C0.974229 20.9531 0.773144 20.3941 0.778514 19.818V19.7792C0.773144 19.2031 0.974229 18.6442 1.3453 18.2038C1.56586 17.9432 1.84079 17.7341 2.15073 17.5912C2.46067 17.4484 2.79811 17.3753 3.13931 17.377H4.70358V16.5983H3.13931C2.69586 16.5963 2.25709 16.6893 1.85249 16.871C1.44789 17.0527 1.0868 17.319 0.793487 17.652C0.275999 18.2413 -0.00644906 19.0009 0.000111783 19.7855V19.8124C-0.00643067 20.5973 0.276258 21.3571 0.794116 21.9465C1.08741 22.2795 1.44849 22.5458 1.8531 22.7276C2.25771 22.9093 2.69646 23.0023 3.13991 23.0002Z" fill="#1B2A4E"/>
<path d="M7.22961 6.28365H15.7814V5.50372H7.22961V6.28365Z" fill="#1B2A4E"/>
<path d="M6.3567 3.20409C6.36635 2.59933 6.59717 2.0191 7.00543 1.57328C7.4137 1.12745 7.97109 0.846991 8.57205 0.784979C8.89743 0.762738 9.2239 0.807613 9.53125 0.91682C9.83861 1.02603 10.1203 1.19724 10.3589 1.41987C10.5975 1.64249 10.7878 1.91177 10.9182 2.21104C11.0486 2.51032 11.1163 2.8332 11.117 3.15971V4.62894H11.8935V3.15971C11.8935 2.32089 11.5607 1.51644 10.9682 0.923304C10.3757 0.330167 9.57219 -0.00305176 8.73433 -0.00305176C7.89647 -0.00305176 7.09295 0.330167 6.50049 0.923304C5.90803 1.51644 5.5752 2.32089 5.5752 3.15971V10.174H6.35421L6.3567 3.20409Z" fill="#1B2A4E"/>
<path d="M21.9989 0.865069C21.3993 0.301741 20.6057 -0.00810544 19.7836 0.00016126C19.2103 -0.00328397 18.6476 0.155508 18.1606 0.458238C17.7032 0.741624 17.3256 1.13713 17.0634 1.60735C16.8013 2.07756 16.6633 2.60696 16.6625 3.14546V10.1816H17.4415V3.14357C17.4427 2.73865 17.547 2.34073 17.7445 1.98735C17.9419 1.63396 18.2261 1.33676 18.5701 1.12379C18.9389 0.895322 19.3648 0.776157 19.7985 0.780087C20.4179 0.773435 21.0159 1.00649 21.4677 1.43063C21.81 1.75615 22.0469 2.17692 22.1479 2.63862C22.2489 3.10031 22.2092 3.58171 22.0342 4.02064C21.8591 4.45958 21.5566 4.83588 21.1658 5.10096C20.7749 5.36604 20.3137 5.50773 19.8416 5.5077H18.3129V6.28761H19.8416C20.4694 6.28758 21.0827 6.09915 21.6025 5.74665C22.1222 5.39414 22.5245 4.89375 22.7573 4.31007C22.9902 3.7264 23.0429 3.08623 22.9087 2.47225C22.7745 1.85828 22.4595 1.29868 22.0045 0.865698L21.9989 0.865069Z" fill="#1B2A4E"/>
<path d="M16.6561 19.756C16.6494 20.375 16.4095 20.9686 15.9844 21.418C15.5593 21.8675 14.9803 22.1397 14.3634 22.1801C14.0436 22.1919 13.7248 22.139 13.426 22.0246C13.1271 21.9102 12.8544 21.7367 12.624 21.5144C12.3937 21.292 12.2105 21.0255 12.0854 20.7307C11.9603 20.4359 11.8958 20.1188 11.8958 19.7985V18.2518H11.1168V19.7985C11.1157 20.214 11.1969 20.6255 11.3557 21.0093C11.5145 21.3931 11.7477 21.7416 12.0419 22.0345L12.0575 22.0502C12.6473 22.6353 13.4445 22.9627 14.2747 22.9607H14.3197C15.1487 22.9458 15.9389 22.6065 16.5212 22.0155C17.1034 21.4244 17.4312 20.6286 17.4345 19.7985V12.7074H16.6555L16.6561 19.756Z" fill="#1B2A4E"/>
<path d="M37.3807 5.77845L34.4331 14.0394L31.4993 5.79722L29.2209 5.80469L33.3782 17.4084L35.4949 17.4016L39.6441 5.77284L37.3807 5.77845Z" fill="#1B2A4E"/>
<path d="M46.2455 8.58184V9.51924C45.8984 9.15131 45.4793 8.85881 45.0145 8.65992C44.5496 8.46103 44.0489 8.35998 43.5433 8.36309C41.313 8.36997 39.5084 10.2204 39.5171 12.9064C39.5252 15.5436 41.4378 17.4146 43.6201 17.4059C44.1163 17.4104 44.6079 17.3113 45.0636 17.1148C45.5194 16.9183 45.9291 16.6288 46.2668 16.2648V17.1709L48.4159 17.164L48.3891 8.57307L46.2455 8.58184ZM44.0046 15.433C43.682 15.4277 43.364 15.3564 43.07 15.2235C42.776 15.0905 42.5122 14.8988 42.295 14.66C42.0778 14.4212 41.9117 14.1405 41.8069 13.835C41.7021 13.5296 41.6608 13.2059 41.6856 12.8839C41.6813 11.4765 42.5664 10.341 43.989 10.336C44.6312 10.3822 45.2322 10.6697 45.6716 11.1409C46.111 11.612 46.3563 12.2321 46.3584 12.8766C46.3605 13.5212 46.1191 14.1428 45.6827 14.6168C45.2463 15.0907 44.6471 15.382 44.0052 15.4323L44.0046 15.433Z" fill="#1B2A4E"/>
<path d="M53.8026 11.9685L53.0093 11.5667C52.5399 11.3254 52.2321 11.1811 52.2315 10.8574C52.2315 10.5174 52.5692 10.3387 53.0055 10.3374C53.5866 10.391 54.1228 10.6733 54.4961 11.1223L55.817 9.77559C55.4896 9.33293 55.0624 8.974 54.5701 8.72812C54.0778 8.48223 53.5344 8.35638 52.9843 8.36076C52.638 8.33542 52.2902 8.38015 51.9615 8.49232C51.6329 8.60449 51.3302 8.78178 51.0715 9.01362C50.8128 9.24545 50.6033 9.52707 50.4557 9.8417C50.3081 10.1563 50.2252 10.4975 50.2121 10.8449C50.2153 11.9285 50.9132 12.7684 52.2889 13.4596L53.0174 13.8295C53.6166 14.1351 53.9724 14.4088 53.9737 14.7813C53.9737 15.1694 53.5555 15.4781 53.0224 15.48C52.3148 15.3977 51.6687 15.0382 51.2253 14.4801L49.9044 15.9399C50.2519 16.408 50.7069 16.7854 51.231 17.04C51.7551 17.2947 52.3327 17.4192 52.915 17.4029C54.7877 17.3973 55.998 16.2443 55.9936 14.7076C55.9893 13.4346 55.2271 12.6922 53.8026 11.9685Z" fill="#1B2A4E"/>
<path d="M59.6091 8.81019L57.46 8.81695L57.4869 17.4085L59.6361 17.4017L59.6091 8.81019Z" fill="#1B2A4E"/>
<path d="M58.5154 4.99981C58.3394 4.99583 58.1643 5.02662 58.0001 5.09044C57.836 5.15426 57.6861 5.24985 57.5589 5.37174C57.4317 5.49363 57.3297 5.6394 57.2588 5.80077C57.188 5.96214 57.1496 6.13591 57.1459 6.31215C57.1389 6.50023 57.1691 6.68783 57.2346 6.86423C57.3001 7.04063 57.3998 7.20237 57.5278 7.34021C57.6558 7.47805 57.8096 7.58929 57.9806 7.66756C58.1515 7.74582 58.3362 7.78959 58.5241 7.79636C58.7046 7.79587 58.8831 7.75976 59.0496 7.69014C59.2162 7.62051 59.3673 7.51875 59.4945 7.3906C59.6217 7.26245 59.7224 7.11044 59.7909 6.9433C59.8594 6.77616 59.8943 6.59716 59.8937 6.41651C59.8965 6.23278 59.863 6.05032 59.7952 5.87957C59.7273 5.70883 59.6265 5.55315 59.4985 5.42152C59.3704 5.28988 59.2176 5.18489 59.0489 5.11252C58.8802 5.04015 58.6989 5.00184 58.5154 4.99981Z" fill="#1B2A4E"/>
<path d="M65.2331 8.8062L63.9565 8.80994L63.9466 5.63905L61.7974 5.64592L61.8074 8.81685L60.7087 8.81997L60.7144 10.6648L61.813 10.6616L61.8342 17.4109L63.9834 17.404L63.9622 10.6548L65.2387 10.6504L65.2331 8.8062Z" fill="#1B2A4E"/>
<path d="M71.7937 8.60136L71.8081 13.1803C71.8124 14.6363 71.3461 15.43 70.1988 15.4344C69.0678 15.4381 68.5802 14.6307 68.5758 13.0934L68.5621 8.61136L66.413 8.61822L66.4248 12.5497C66.3968 13.1552 66.4259 13.762 66.5116 14.362C66.8574 16.3674 68.1345 17.4148 70.2057 17.4085C70.7181 17.4444 71.2321 17.3648 71.7097 17.1757C72.1874 16.9865 72.6167 16.6926 72.966 16.3155C73.868 15.3094 73.961 14.1445 73.956 12.5591L73.9435 8.59511L71.7937 8.60136Z" fill="#1B2A4E"/>
<path d="M88.6024 9.55376C88.3171 9.22749 87.963 8.96884 87.5656 8.79655C87.1682 8.62426 86.7375 8.54265 86.3046 8.55762C85.7345 8.55144 85.1722 8.69 84.67 8.96037C84.1679 9.23074 83.7424 9.6241 83.4332 10.1037C83.2075 9.63303 82.8502 9.23802 82.4047 8.96659C81.9592 8.69516 81.4446 8.55894 80.9233 8.57448C80.4158 8.57698 79.9147 8.68719 79.4529 8.89778C78.9911 9.10837 78.5791 9.41458 78.2441 9.79623V8.80948L76.095 8.81634L76.1218 17.4073L78.271 17.4004L78.2579 13.194C78.2523 11.4304 79.025 10.5543 80.0918 10.5512C81.2878 10.5474 81.6143 11.5654 81.6193 13.2321L81.6324 17.3904L83.7816 17.3835L83.7678 13.1446C83.7622 11.381 84.535 10.5374 85.618 10.5336C86.5874 10.5336 87.0905 11.2248 87.0955 12.6322L87.1105 17.3729L89.2597 17.366L89.2441 12.3341C89.2378 11.2023 89.1704 10.2643 88.6024 9.55376Z" fill="#1B2A4E"/>
</g>
<defs>
<clipPath id="clip0_351_1334">
<rect width="89.2591" height="23" fill="white"/>
</clipPath>
</defs>
</svg>
